<?xml version="1.0" encoding="utf-8"?>
<!-- Generator: Adobe Illustrator 25.2.3, SVG Export Plug-In . SVG Version: 6.00 Build 0)  -->
<svg version="1.1" id="Camada_1" xmlns="http://www.w3.org/2000/svg" xmlns:xlink="http://www.w3.org/1999/xlink" x="0px" y="0px"
	 viewBox="0 0 120 120" style="enable-background:new 0 0 120 120;" xml:space="preserve">
<g>
	<path d="M100.63,14.13c-7.91,0-15.85-0.02-23.8,0.02c-1.82,0.01-3.77-0.14-5.43,0.43c-2.34,0.81-4.9,1.78-6.6,3.46
		c-15.44,15.18-30.75,30.5-46.01,45.87c-1.63,1.64-2.73,3.8-3.78,5.31c-2.65-2.4-5.94-4.93-8.65-7.98
		c-2.08-2.33-1.32-5.51,1.28-8.12c6.23-6.27,12.49-12.51,18.74-18.76c8.89-8.9,17.83-17.75,26.66-26.71
		c2.05-2.08,4.35-3.09,7.21-3.08c10.91,0.01,21.81-0.02,32.72,0.02C98.3,4.61,101.42,8.45,100.63,14.13z"/>
	<path d="M115.21,26.94c-0.01-4.93-3.14-8-8.11-8.02c-5.41-0.03-10.83-0.01-16.24-0.01c-5.33,0-10.67,0.03-16-0.01
		c-2.93-0.02-5.33,0.91-7.46,3.06C52.47,36.99,37.47,51.94,22.5,66.92c-3.87,3.87-3.87,7-0.03,10.85
		c11.2,11.21,22.41,22.41,33.61,33.61c4.22,4.22,7.18,4.23,11.37,0.04c14.81-14.81,29.59-29.64,44.45-44.39
		c2.26-2.24,3.34-4.71,3.33-7.84C115.19,48.44,115.24,37.69,115.21,26.94z M96.06,42.78c-2.52-0.02-4.7-2.21-4.71-4.73
		c-0.01-2.61,2.32-4.87,4.91-4.78c2.52,0.09,4.65,2.34,4.59,4.86C100.79,40.66,98.59,42.8,96.06,42.78z"/>
</g>
</svg>
